<?xml version="1.0" encoding="UTF-8"?><svg id="Layer_2" xmlns="http://www.w3.org/2000/svg" viewBox="0 0 412.3 377.7"><defs><style>.cls-1{fill:#0060a9;}.cls-2{fill:#f8991d;}</style></defs><g id="Layer_1-2"><path class="cls-1" d="M6.6,190.7c22.8-1.6,51.2-2.4,71.9.5,30.6,4.4,59.9,15.7,73.2,34,13.3,18.3,14.2,48.7,8,78-4.2,19.8-14.8,45.3-24,65.4l6.6,9.1,74-196.2H0l6.6,9.1Z"/><path class="cls-2" d="M405.7,187c-22.8,1.6-51.2,2.5-71.9-.5-30.6-4.4-59.9-15.6-73.2-33.9-13.3-18.3-14.2-48.7-8-78,4.2-19.8,14.7-45.3,24.1-65.4l-6.6-9.1-74,196.2h216.2s-6.6-9.1-6.6-9.1Z"/></g></svg>